<mxfile host="app.diagrams.net" modified="2023-06-02T13:40:43.938Z" agent="Mozilla/5.0 (Windows NT 10.0; Win64; x64) AppleWebKit/537.36 (KHTML, like Gecko) Chrome/113.0.0.0 Safari/537.36" etag="kBXyFT5K6YeRiBhY7Ayp" version="21.3.2" type="device">
  <diagram id="C5RBs43oDa-KdzZeNtuy" name="Page-1">
    <mxGraphModel dx="2327" dy="830" grid="1" gridSize="10" guides="1" tooltips="1" connect="1" arrows="1" fold="1" page="1" pageScale="1" pageWidth="827" pageHeight="1169" math="0" shadow="0">
      <root>
        <mxCell id="WIyWlLk6GJQsqaUBKTNV-0" />
        <mxCell id="WIyWlLk6GJQsqaUBKTNV-1" parent="WIyWlLk6GJQsqaUBKTNV-0" />
        <mxCell id="dJE-pX3pTwdwirJ0w73R-5" style="edgeStyle=orthogonalEdgeStyle;rounded=0;orthogonalLoop=1;jettySize=auto;html=1;exitX=1;exitY=0.5;exitDx=0;exitDy=0;entryX=0.5;entryY=0;entryDx=0;entryDy=0;" parent="WIyWlLk6GJQsqaUBKTNV-1" source="dJE-pX3pTwdwirJ0w73R-0" target="dJE-pX3pTwdwirJ0w73R-2" edge="1">
          <mxGeometry relative="1" as="geometry" />
        </mxCell>
        <mxCell id="dJE-pX3pTwdwirJ0w73R-6" style="edgeStyle=orthogonalEdgeStyle;rounded=0;orthogonalLoop=1;jettySize=auto;html=1;exitX=0;exitY=0.5;exitDx=0;exitDy=0;entryX=0.5;entryY=0;entryDx=0;entryDy=0;" parent="WIyWlLk6GJQsqaUBKTNV-1" source="dJE-pX3pTwdwirJ0w73R-0" target="dJE-pX3pTwdwirJ0w73R-1" edge="1">
          <mxGeometry relative="1" as="geometry" />
        </mxCell>
        <mxCell id="dJE-pX3pTwdwirJ0w73R-0" value="Corpra" style="rounded=0;whiteSpace=wrap;html=1;" parent="WIyWlLk6GJQsqaUBKTNV-1" vertex="1">
          <mxGeometry x="210" y="30" width="120" height="60" as="geometry" />
        </mxCell>
        <mxCell id="dJE-pX3pTwdwirJ0w73R-1" value="Images" style="rounded=0;whiteSpace=wrap;html=1;" parent="WIyWlLk6GJQsqaUBKTNV-1" vertex="1">
          <mxGeometry x="80" y="150" width="120" height="40" as="geometry" />
        </mxCell>
        <mxCell id="dJE-pX3pTwdwirJ0w73R-2" value="Documents" style="rounded=0;whiteSpace=wrap;html=1;" parent="WIyWlLk6GJQsqaUBKTNV-1" vertex="1">
          <mxGeometry x="336" y="150" width="120" height="40" as="geometry" />
        </mxCell>
        <mxCell id="dJE-pX3pTwdwirJ0w73R-12" style="edgeStyle=orthogonalEdgeStyle;rounded=0;orthogonalLoop=1;jettySize=auto;html=1;exitX=0.5;exitY=1;exitDx=0;exitDy=0;entryX=0;entryY=0.5;entryDx=0;entryDy=0;" parent="WIyWlLk6GJQsqaUBKTNV-1" source="dJE-pX3pTwdwirJ0w73R-3" target="dJE-pX3pTwdwirJ0w73R-11" edge="1">
          <mxGeometry relative="1" as="geometry" />
        </mxCell>
        <mxCell id="dJE-pX3pTwdwirJ0w73R-3" value="-Images of maps&lt;br&gt;" style="rounded=0;whiteSpace=wrap;html=1;" parent="WIyWlLk6GJQsqaUBKTNV-1" vertex="1">
          <mxGeometry x="80" y="190" width="120" height="40" as="geometry" />
        </mxCell>
        <mxCell id="dJE-pX3pTwdwirJ0w73R-24" style="edgeStyle=orthogonalEdgeStyle;rounded=0;orthogonalLoop=1;jettySize=auto;html=1;entryX=1;entryY=0.5;entryDx=0;entryDy=0;" parent="WIyWlLk6GJQsqaUBKTNV-1" source="dJE-pX3pTwdwirJ0w73R-4" target="dJE-pX3pTwdwirJ0w73R-11" edge="1">
          <mxGeometry relative="1" as="geometry" />
        </mxCell>
        <mxCell id="dJE-pX3pTwdwirJ0w73R-4" value="-Scanned PDFs" style="rounded=0;whiteSpace=wrap;html=1;" parent="WIyWlLk6GJQsqaUBKTNV-1" vertex="1">
          <mxGeometry x="336" y="190" width="120" height="40" as="geometry" />
        </mxCell>
        <mxCell id="dJE-pX3pTwdwirJ0w73R-7" value="JPG/PNG" style="text;html=1;align=center;verticalAlign=middle;resizable=0;points=[];autosize=1;strokeColor=none;fillColor=none;" parent="WIyWlLk6GJQsqaUBKTNV-1" vertex="1">
          <mxGeometry x="50" y="230" width="80" height="30" as="geometry" />
        </mxCell>
        <mxCell id="dJE-pX3pTwdwirJ0w73R-8" value="PDF of images" style="text;html=1;align=center;verticalAlign=middle;resizable=0;points=[];autosize=1;strokeColor=none;fillColor=none;" parent="WIyWlLk6GJQsqaUBKTNV-1" vertex="1">
          <mxGeometry x="290" y="230" width="100" height="30" as="geometry" />
        </mxCell>
        <mxCell id="dJE-pX3pTwdwirJ0w73R-29" style="edgeStyle=orthogonalEdgeStyle;rounded=0;orthogonalLoop=1;jettySize=auto;html=1;" parent="WIyWlLk6GJQsqaUBKTNV-1" source="dJE-pX3pTwdwirJ0w73R-11" target="dJE-pX3pTwdwirJ0w73R-27" edge="1">
          <mxGeometry relative="1" as="geometry" />
        </mxCell>
        <mxCell id="dJE-pX3pTwdwirJ0w73R-11" value="Preprocess" style="rounded=0;whiteSpace=wrap;html=1;" parent="WIyWlLk6GJQsqaUBKTNV-1" vertex="1">
          <mxGeometry x="185" y="290" width="170" height="60" as="geometry" />
        </mxCell>
        <mxCell id="dJE-pX3pTwdwirJ0w73R-16" value="Postgres" style="rounded=0;whiteSpace=wrap;html=1;" parent="WIyWlLk6GJQsqaUBKTNV-1" vertex="1">
          <mxGeometry x="185" y="705" width="170" height="60" as="geometry" />
        </mxCell>
        <mxCell id="dJE-pX3pTwdwirJ0w73R-21" style="edgeStyle=orthogonalEdgeStyle;rounded=0;orthogonalLoop=1;jettySize=auto;html=1;exitX=0.5;exitY=1;exitDx=0;exitDy=0;entryX=0.5;entryY=0;entryDx=0;entryDy=0;" parent="WIyWlLk6GJQsqaUBKTNV-1" target="grQXHiUceHuCOxBjTFhF-0" edge="1">
          <mxGeometry relative="1" as="geometry">
            <mxPoint x="270" y="540" as="sourcePoint" />
          </mxGeometry>
        </mxCell>
        <mxCell id="dJE-pX3pTwdwirJ0w73R-22" style="edgeStyle=orthogonalEdgeStyle;rounded=0;orthogonalLoop=1;jettySize=auto;html=1;exitX=1;exitY=0.5;exitDx=0;exitDy=0;entryX=0;entryY=0.5;entryDx=0;entryDy=0;" parent="WIyWlLk6GJQsqaUBKTNV-1" target="dJE-pX3pTwdwirJ0w73R-16" edge="1">
          <mxGeometry relative="1" as="geometry">
            <mxPoint x="120" y="734.9999999999998" as="sourcePoint" />
          </mxGeometry>
        </mxCell>
        <mxCell id="dJE-pX3pTwdwirJ0w73R-18" value="Web Interface" style="rounded=0;whiteSpace=wrap;html=1;" parent="WIyWlLk6GJQsqaUBKTNV-1" vertex="1">
          <mxGeometry x="-20" y="705" width="170" height="60" as="geometry" />
        </mxCell>
        <mxCell id="dJE-pX3pTwdwirJ0w73R-19" value="React" style="text;html=1;align=center;verticalAlign=middle;resizable=0;points=[];autosize=1;strokeColor=none;fillColor=none;" parent="WIyWlLk6GJQsqaUBKTNV-1" vertex="1">
          <mxGeometry x="-30" y="680" width="50" height="30" as="geometry" />
        </mxCell>
        <mxCell id="dJE-pX3pTwdwirJ0w73R-42" style="edgeStyle=orthogonalEdgeStyle;rounded=0;orthogonalLoop=1;jettySize=auto;html=1;" parent="WIyWlLk6GJQsqaUBKTNV-1" source="dJE-pX3pTwdwirJ0w73R-27" target="dJE-pX3pTwdwirJ0w73R-32" edge="1">
          <mxGeometry relative="1" as="geometry" />
        </mxCell>
        <mxCell id="dJE-pX3pTwdwirJ0w73R-27" value="OCR" style="rounded=0;whiteSpace=wrap;html=1;" parent="WIyWlLk6GJQsqaUBKTNV-1" vertex="1">
          <mxGeometry x="185" y="390" width="170" height="60" as="geometry" />
        </mxCell>
        <mxCell id="dJE-pX3pTwdwirJ0w73R-32" value="GPT" style="rounded=0;whiteSpace=wrap;html=1;" parent="WIyWlLk6GJQsqaUBKTNV-1" vertex="1">
          <mxGeometry x="185" y="490" width="170" height="60" as="geometry" />
        </mxCell>
        <mxCell id="dJE-pX3pTwdwirJ0w73R-43" value="SQL" style="text;html=1;align=center;verticalAlign=middle;resizable=0;points=[];autosize=1;strokeColor=none;fillColor=none;" parent="WIyWlLk6GJQsqaUBKTNV-1" vertex="1">
          <mxGeometry x="185" y="680" width="50" height="30" as="geometry" />
        </mxCell>
        <mxCell id="dJE-pX3pTwdwirJ0w73R-44" value="Javascript" style="text;html=1;align=center;verticalAlign=middle;resizable=0;points=[];autosize=1;strokeColor=none;fillColor=none;" parent="WIyWlLk6GJQsqaUBKTNV-1" vertex="1">
          <mxGeometry x="170" y="460" width="80" height="30" as="geometry" />
        </mxCell>
        <mxCell id="dJE-pX3pTwdwirJ0w73R-45" value="Python" style="text;html=1;align=center;verticalAlign=middle;resizable=0;points=[];autosize=1;strokeColor=none;fillColor=none;" parent="WIyWlLk6GJQsqaUBKTNV-1" vertex="1">
          <mxGeometry x="180" y="360" width="60" height="30" as="geometry" />
        </mxCell>
        <mxCell id="grQXHiUceHuCOxBjTFhF-2" style="edgeStyle=orthogonalEdgeStyle;rounded=0;orthogonalLoop=1;jettySize=auto;html=1;exitX=0.5;exitY=1;exitDx=0;exitDy=0;" edge="1" parent="WIyWlLk6GJQsqaUBKTNV-1" source="grQXHiUceHuCOxBjTFhF-0" target="dJE-pX3pTwdwirJ0w73R-16">
          <mxGeometry relative="1" as="geometry" />
        </mxCell>
        <mxCell id="grQXHiUceHuCOxBjTFhF-0" value="generateSQL.py" style="rounded=0;whiteSpace=wrap;html=1;" vertex="1" parent="WIyWlLk6GJQsqaUBKTNV-1">
          <mxGeometry x="185" y="590" width="170" height="60" as="geometry" />
        </mxCell>
        <mxCell id="grQXHiUceHuCOxBjTFhF-3" value="Python" style="text;html=1;align=center;verticalAlign=middle;resizable=0;points=[];autosize=1;strokeColor=none;fillColor=none;" vertex="1" parent="WIyWlLk6GJQsqaUBKTNV-1">
          <mxGeometry x="180" y="560" width="60" height="30" as="geometry" />
        </mxCell>
      </root>
    </mxGraphModel>
  </diagram>
</mxfile>
